<svg xmlns="http://www.w3.org/2000/svg" viewBox="0 0 512 512" role="img" aria-label="Naija Tax Guide logo icon">
  <defs>
    <radialGradient id="bg" cx="35%" cy="25%" r="75%">
      <stop offset="0" stop-color="#1e293b"/>
      <stop offset="0.55" stop-color="#050816"/>
      <stop offset="1" stop-color="#000000"/>
    </radialGradient>
    <linearGradient id="blue" x1="120" y1="80" x2="390" y2="390" gradientUnits="userSpaceOnUse">
      <stop offset="0" stop-color="#38bdf8"/>
      <stop offset="0.45" stop-color="#2563eb"/>
      <stop offset="1" stop-color="#0f172a"/>
    </linearGradient>
    <linearGradient id="orange" x1="116" y1="132" x2="292" y2="330" gradientUnits="userSpaceOnUse">
      <stop offset="0" stop-color="#facc15"/>
      <stop offset="0.35" stop-color="#f97316"/>
      <stop offset="1" stop-color="#c2410c"/>
    </linearGradient>
    <linearGradient id="gold" x1="208" y1="24" x2="292" y2="160" gradientUnits="userSpaceOnUse">
      <stop offset="0" stop-color="#fde047"/>
      <stop offset="1" stop-color="#f59e0b"/>
    </linearGradient>
    <filter id="glow" x="-35%" y="-35%" width="170%" height="170%">
      <feGaussianBlur stdDeviation="10" result="blur"/>
      <feColorMatrix in="blur" type="matrix" values="0 0 0 0 0.15 0 0 0 0 0.45 0 0 0 0 1 0 0 0 .65 0" result="blueGlow"/>
      <feMerge>
        <feMergeNode in="blueGlow"/>
        <feMergeNode in="SourceGraphic"/>
      </feMerge>
    </filter>
  </defs>

  <circle cx="256" cy="256" r="240" fill="url(#bg)"/>
  <circle cx="256" cy="256" r="232" fill="none" stroke="rgba(255,255,255,0.08)" stroke-width="8"/>

  <path d="M256 40l22 70 69-30-34 66 72 18-72 19 35 65-70-30-22 70-22-70-70 30 35-65-72-19 72-18-34-66 69 30z" fill="url(#gold)"/>

  <path d="M146 159c18-43 59-75 111-83-70 50-91 119-60 179 18 35 44 57 66 89-52-25-111-68-128-118-8-25-4-47 11-67z" fill="url(#orange)"/>

  <path d="M273 75c66 9 114 53 125 110 11 59-25 109-62 151-20 23-28 42-31 68h-95c-3-27-13-48-33-72-35-42-64-86-53-142 8-42 41-79 88-98-45 40-58 99-31 151 24 47 72 74 91 128 9-50 38-80 73-119 28-31 42-66 31-100-13-40-51-66-103-77z" fill="url(#blue)" filter="url(#glow)"/>

  <rect x="195" y="186" width="38" height="101" rx="9" fill="#f97316"/>
  <rect x="237" y="148" width="38" height="139" rx="9" fill="#f59e0b"/>
  <rect x="279" y="112" width="38" height="175" rx="9" fill="#fde047"/>

  <path d="M203 374h106c12 0 20 9 17 20l-4 17H190l-4-17c-3-11 5-20 17-20z" fill="#1d4ed8"/>
  <path d="M195 417h122l-10 22H205z" fill="#1e40af"/>
  <path d="M213 447h86l-10 20h-66z" fill="#172554"/>
</svg>
